<svg xmlns="http://www.w3.org/2000/svg" width="43" height="43" viewBox="0 0 43 43"><defs><style>.a{fill:#3062bf;stroke:#3062bf;}</style></defs><g transform="translate(0.5 0.5)"><path class="a" d="M138.428,477.867H120.121a.654.654,0,0,0-.654.654v1.308a.654.654,0,0,0,1.308,0v-.654h17.654a.654.654,0,0,0,0-1.308Z" transform="translate(-109.021 -438.482)"/><path class="a" d="M187.733,158.177a.654.654,0,0,0,.654.654H191a.654.654,0,0,0,.654-.654v-3.923A.654.654,0,0,0,191,153.6h-2.615a.654.654,0,0,0-.654.654v3.923Zm1.308-3.269h1.308v2.615h-1.308Z" transform="translate(-172.22 -140.872)"/><path class="a" d="M8.5,102.4H.654a.654.654,0,0,0-.654.654v13.077a.654.654,0,1,0,1.308,0V103.708H8.5a.654.654,0,0,0,0-1.308Z" transform="translate(0 -93.679)"/><path class="a" d="M409.6,362.977a.654.654,0,0,0,.654.654h2.615a.654.654,0,0,0,.654-.654v-3.923a.654.654,0,0,0-.654-.654h-2.615a.654.654,0,0,0-.654.654Zm1.308-3.269h1.308v2.615h-1.308Z" transform="translate(-375.446 -327.702)"/><path class="a" d="M3.269,307.2C.037,307.2,0,315.615,0,315.7a3.275,3.275,0,0,0,2.615,3.2v3.335a.654.654,0,1,0,1.308,0V318.9a3.275,3.275,0,0,0,2.615-3.2C6.538,315.615,6.5,307.2,3.269,307.2Zm0,10.461A1.964,1.964,0,0,1,1.308,315.7c0-3.257.875-7.192,1.962-7.192s1.962,3.935,1.962,7.192A1.964,1.964,0,0,1,3.269,317.661Z" transform="translate(0 -280.892)"/><path class="a" d="M54.469,256H51.854a.654.654,0,0,0-.654.654v1.308a.654.654,0,1,0,1.308,0v-.654h1.308v3.269a.654.654,0,0,0,1.308,0v-3.923A.654.654,0,0,0,54.469,256Z" transform="translate(-47.277 -234.787)"/><path class="a" d="M410.254,158.832h2.615a.654.654,0,0,0,.654-.654v-3.923a.654.654,0,0,0-.654-.654h-2.615a.654.654,0,0,0-.654.654v3.923A.654.654,0,0,0,410.254,158.832Zm.654-3.923h1.308v2.615h-1.308Z" transform="translate(-375.446 -139.873)"/><path class="a" d="M54.469,153.6H51.854a.654.654,0,0,0-.654.654v3.923a.654.654,0,0,0,.654.654h2.615a.654.654,0,0,0,.654-.654v-3.923A.654.654,0,0,0,54.469,153.6Zm-.654,3.923H52.508v-2.615h1.308v2.615Z" transform="translate(-47.277 -140.872)"/><path class="a" d="M273.067,158.177a.654.654,0,0,0,.654.654h2.615a.654.654,0,0,0,.654-.654v-3.923a.654.654,0,0,0-.654-.654h-2.615a.654.654,0,0,0-.654.654v3.923Zm1.308-3.269h1.308v2.615h-1.308Z" transform="translate(-250.503 -140.872)"/><path class="a" d="M401.034,102.4h-7.846a.654.654,0,0,0,0,1.308h7.192v26.274a1.868,1.868,0,0,0-.99-.091,2.611,2.611,0,0,0-4.559,0,1.925,1.925,0,0,0-.336-.029,1.962,1.962,0,0,0,0,3.923h5.231a1.964,1.964,0,0,0,1.961-1.962V103.054A.654.654,0,0,0,401.034,102.4Zm-1.308,30.077H394.5a.654.654,0,1,1,0-1.308.646.646,0,0,1,.354.107.654.654,0,0,0,.991-.4,1.3,1.3,0,0,1,2.54,0,.654.654,0,0,0,.991.4.667.667,0,0,1,1.008.547A.655.655,0,0,1,399.726,132.477Z" transform="translate(-359.688 -91.784)"/><path class="a" d="M273.721,56.432h2.615a.654.654,0,0,0,.654-.654V51.855a.654.654,0,0,0-.654-.654h-2.615a.654.654,0,0,0-.654.654v3.923A.654.654,0,0,0,273.721,56.432Zm.654-3.923h1.308v2.615h-1.308V52.509Z" transform="translate(-250.503 -47.278)"/><path class="a" d="M273.067,260.577a.654.654,0,0,0,.654.654h2.615a.654.654,0,0,0,.654-.654v-3.923a.654.654,0,0,0-.654-.654h-2.615a.654.654,0,0,0-.654.654v3.923Zm1.308-3.269h1.308v2.615h-1.308Z" transform="translate(-250.503 -234.787)"/><path class="a" d="M188.388,56.432H191a.654.654,0,0,0,.654-.654V51.855A.654.654,0,0,0,191,51.2h-2.615a.654.654,0,0,0-.654.654v3.923A.654.654,0,0,0,188.388,56.432Zm.654-3.923h1.308v2.615h-1.308Z" transform="translate(-172.221 -47.278)"/><path class="a" d="M247.656,409.888a.654.654,0,1,0,.928,0A.688.688,0,0,0,247.656,409.888Z" transform="translate(-227.12 -375.544)"/><path class="a" d="M187.733,260.577a.654.654,0,0,0,.654.654H191a.654.654,0,0,0,.654-.654v-3.923A.654.654,0,0,0,191,256h-2.615a.654.654,0,0,0-.654.654v3.923Zm1.308-3.269h1.308v2.615h-1.308Z" transform="translate(-172.22 -234.787)"/><path class="a" d="M170.667,359.054a.654.654,0,0,0,.654.654h1.962v5.885a.654.654,0,0,0,1.308,0v-5.885h5.231v5.885a.654.654,0,0,0,1.308,0v-5.885h1.962a.654.654,0,1,0,0-1.308H171.321A.654.654,0,0,0,170.667,359.054Z" transform="translate(-156.205 -328.169)"/><path class="a" d="M409.6,260.577a.654.654,0,0,0,.654.654h2.615a.654.654,0,0,0,.654-.654v-3.923a.654.654,0,0,0-.654-.654h-2.615a.654.654,0,0,0-.654.654Zm1.308-3.269h1.308v2.615h-1.308Z" transform="translate(-375.446 -233.787)"/><path class="a" d="M154.188,0h-17a.681.681,0,0,0-.654.705V37.372a.656.656,0,1,0,1.308,0V1.41h15.692V37.372a.656.656,0,1,0,1.308,0V.705A.681.681,0,0,0,154.188,0Z" transform="translate(-124.688)"/></g></svg>