<svg xmlns="http://www.w3.org/2000/svg" width="43" height="43" viewBox="0 0 43 43"><defs><style>.a{fill:#3062bf;stroke:#2e5fb9;}</style></defs><g transform="translate(0.499 0.499)"><path class="a" d="M81.564,180.734a.822.822,0,1,0,.822.821A.822.822,0,0,0,81.564,180.734Zm0,0" transform="translate(-74.106 -165.908)"/><path class="a" d="M30.429,24.629a.82.82,0,0,0-.58-.24.829.829,0,0,0-.58.24l-.58.58L26.8,23.324a14.765,14.765,0,1,0-3.481,3.48l1.885,1.885-.58.58a.821.821,0,0,0,0,1.16L35,40.8A4.1,4.1,0,1,0,40.8,35Zm-4.06,2.9-1.756-1.756c.2-.183.4-.371.6-.564s.381-.393.564-.6l1.756,1.756ZM5.489,24.049a13.124,13.124,0,1,1,18.56,0A13.116,13.116,0,0,1,5.489,24.049Zm24.36,2.32,2.32,2.32-3.48,3.48-2.32-2.32Zm9.79,13.27a2.457,2.457,0,0,1-3.479,0l-6.311-6.311,3.48-3.48,6.311,6.311A2.457,2.457,0,0,1,39.639,39.639Zm0,0" transform="translate(0 0)"/><path class="a" d="M59.734,43.389a11.5,11.5,0,1,0,0,16.267A11.5,11.5,0,0,0,59.734,43.389Zm-1.163,15.1a9.86,9.86,0,1,1,0-13.943A9.854,9.854,0,0,1,58.572,58.494Zm0,0" transform="translate(-36.807 -36.728)"/><path class="a" d="M92.681,80.043a8.213,8.213,0,0,0-7.776,5.562.822.822,0,0,0,1.556.528,6.569,6.569,0,0,1,6.219-4.447.822.822,0,0,0,0-1.643Zm0,0" transform="translate(-77.902 -73.478)"/></g></svg>