<svg xmlns="http://www.w3.org/2000/svg" width="86" height="86" viewBox="0 0 86 86"><defs><style>.a{fill:#3062bf;}.b{fill:#d39a5b;}.c{fill:#e8b374;}.d{fill:#494949;}.e{fill:#efefef;}.f{fill:#fdc33d;}.g{fill:#231f20;opacity:0.15;}.h{fill:#ffd454;}.i{fill:#ffeaa9;}.j{fill:#f8bd36;}.k{fill:#804f31;}.l{fill:#71452c;}.m{fill:#f4f4f4;}</style></defs><g transform="translate(-522.93 -422.532)"><g transform="translate(522.93 424.719)"><path class="a" d="M608.93,564.836a41.357,41.357,0,0,1-14.554,31.426,43.173,43.173,0,0,1-11.588,7.137,43.822,43.822,0,0,1-16.859,3.344c-23.748,0-43-18.762-43-41.906s19.252-41.906,43-41.906S608.93,541.692,608.93,564.836Z" transform="translate(-522.93 -522.93)"/></g><g transform="translate(528.228 422.532)"><g transform="translate(0 0)"><path class="b" d="M1991.593,2484.854a6.656,6.656,0,0,1,2.188,1.759,36.835,36.835,0,0,1,6.01,8.937c-3.326.857-5.663,4.129-9.087,4.563a3.157,3.157,0,0,1-2.243-.435,4.267,4.267,0,0,1-1.042-1.237q-1.215-1.908-2.243-3.924a16.147,16.147,0,0,1-1.39-3.467,6.7,6.7,0,0,1,.032-3.641,3.917,3.917,0,0,1,2.442-2.615,6.587,6.587,0,0,1,.879-.038c.284-.022.568-.054.851-.087a16.672,16.672,0,0,1,1.725-.144A4.637,4.637,0,0,1,1991.593,2484.854Z" transform="translate(-1957.029 -2441.114)"/><path class="c" d="M2093.634,2537.358a17.28,17.28,0,0,1-4.07-1.05c1.637-.662,3.141-1.052,4.711-1.86,1.108-.57,2.268-.667,3.021-1.66a6.433,6.433,0,0,1,2.78-2.415c-1.076-1.975-2.092-4.171-3.224-6.13l4.834-3.56c.22.225.525.541.739.768,1.763,1.868,2.425,4.48,3.414,6.851a24.262,24.262,0,0,0,6.059,8.585c1.021.926,1.85,2.189,2.885,3.1q-4.435,3.952-9.148,7.576a71.963,71.963,0,0,0-5.112-6.128,16.789,16.789,0,0,0-3-2.689A11.187,11.187,0,0,0,2093.634,2537.358Z" transform="translate(-2060.733 -2477.302)"/><path class="d" d="M2636.82,3162.25a43.069,43.069,0,0,1-11.607,7.335l-14.473-16.719L2621,3143.98l.162.187Z" transform="translate(-2570.555 -3087.021)"/><path class="e" d="M2552.166,3105.7c-.43.373-.684.785-.566.922l.788.91c.118.136.563-.056.993-.428l9.54-8.259c.43-.373.684-.785.566-.921l-.788-.91c-.118-.136-.562.055-.993.428Z" transform="translate(-2512.675 -3040.537)"/><path class="f" d="M2345.731,722.473s3.927,15.592-8.624,24.416a25.6,25.6,0,0,1-3.534,2.073l-.494-3.715a13.964,13.964,0,0,0,5.4-3.313c2.94-2.829,5.793-7.869,4.8-16.558,0,0-.166-1.852-2.424-1.422l-4.979,1.3-.818-2.734,8.037-2.094A2.761,2.761,0,0,1,2345.731,722.473Z" transform="translate(-2298.942 -713.933)"/><path class="g" d="M2333.078,1711.2a13.966,13.966,0,0,0,5.4-3.313,6.147,6.147,0,0,1-4.9,7.028Z" transform="translate(-2298.942 -1680.72)"/><path class="g" d="M2426.472,784.265c.163.849.328,1.8.486,2.821l-2.365.616-.818-2.734Z" transform="translate(-2387.662 -776.385)"/><path class="f" d="M789.742,1157.8a24.927,24.927,0,0,1-5.168-.222c-14.386-2.174-18.367-16.969-18.367-16.969a2.76,2.76,0,0,1,1.3-3.078l8.037-2.094.62,2.786-4.979,1.3c-2.181.727-1.422,2.424-1.422,2.424,3.063,7.331,7.431,10.485,11.163,11.776a14.271,14.271,0,0,0,7.433.595Z" transform="translate(-766.107 -1120.485)"/><path class="g" d="M1047.166,1135.437l.62,2.786-3.059.8c-.362-.97-.68-1.879-.953-2.7Z" transform="translate(-1037.726 -1120.351)"/><path class="g" d="M1455.261,1978.789a24.936,24.936,0,0,1-5.168-.222,27.007,27.007,0,0,1-3.645-3.857,14.27,14.27,0,0,0,7.433.6Z" transform="translate(-1431.626 -1941.87)"/><path class="h" d="M1076.514,558.611l-.386.553a3.39,3.39,0,0,1-2.034,1.366l-.508.114a3.39,3.39,0,0,1-2.131-.214l-.709-.318c-14.3-3.065-20.733-29.268-20.733-29.268-.443-1.7,1.437-2.665,1.437-2.665l26.328-6.858s2.113-.076,2.555,1.625C1080.334,522.948,1087.5,548.957,1076.514,558.611Z" transform="translate(-1043.763 -519.17)"/><path class="i" d="M2199.107,1541.478c-.343-1.615-.777-1.878-2.367-1.432,1.59-.446,1.87-.909,1.528-2.525.343,1.616.777,1.878,2.367,1.432C2199.044,1539.4,2198.764,1539.863,2199.107,1541.478Z" transform="translate(-2165.574 -1513.93)"/><path class="i" d="M2177.8,1688.693c-.141-.666-.32-.774-.976-.591.656-.184.771-.375.63-1.041.141.666.32.774.976.591C2177.776,1687.835,2177.66,1688.026,2177.8,1688.693Z" transform="translate(-2146.094 -1660.284)"/><path class="j" d="M990.634,428.657l-29.661,7.726a1.891,1.891,0,0,1-2.3-1.349l-.629-2.415a1.891,1.891,0,0,1,1.349-2.3l29.661-7.726a1.891,1.891,0,0,1,2.3,1.349l.629,2.415A1.891,1.891,0,0,1,990.634,428.657Z" transform="translate(-953.804 -422.532)"/><rect class="h" width="4.104" height="32.911" transform="matrix(0.968, -0.252, 0.252, 0.968, 27.409, 37.199)"/><rect class="k" width="26.267" height="13.976" transform="translate(23.394 65.117) rotate(-14.6)"/><rect class="l" width="29.805" height="2.246" transform="translate(24.64 76.915) rotate(-14.6)"/><rect class="i" width="16.415" height="6.71" transform="matrix(0.968, -0.252, 0.252, 0.968, 28.924, 66.802)"/><rect class="j" width="13.143" height="1.607" transform="translate(29.332 62.465) rotate(-14.6)"/><path class="h" d="M2145.322,2926.205s2.576,7.924-1.6,9.012l5.68-1.48-2.1-8.05Z" transform="translate(-2113.709 -2872.841)"/><path class="h" d="M2310.206,2901.977s1.621,8.173,5.8,7.084l-5.688,1.482-2.1-8.05Z" transform="translate(-2274.626 -2849.61)"/><path class="i" d="M2196.382,523.958c-1.344,1.409-1.33,2.029.075,3.376-1.406-1.348-2.023-1.334-3.367.075,1.344-1.409,1.33-2.028-.075-3.376C2194.42,525.381,2195.038,525.367,2196.382,523.958Z" transform="translate(-2161.93 -521.748)"/><path class="i" d="M2084.13,551.64c.25.769.479.886,1.249.639-.77.248-.886.476-.637,1.245-.25-.769-.479-.886-1.249-.639C2084.263,552.638,2084.38,552.409,2084.13,551.64Z" transform="translate(-2054.794 -548.827)"/><path class="i" d="M1308.992,947.187s.42,22.7,15.109,29.187c0,0-12.639-2.465-18.09-18.41,0,0-1.793-5.559-1.761-9.541Z" transform="translate(-1292.527 -935.758)"/><path class="c" d="M1750.676,2513.9l-.022-.152a1.76,1.76,0,0,0-1.985-1.489l-5.848.834a1.76,1.76,0,0,0-1.489,1.985l.022.152a1.76,1.76,0,0,0,1.985,1.489l5.848-.834A1.76,1.76,0,0,0,1750.676,2513.9Z" transform="translate(-1720.071 -2468.035)"/><path class="c" d="M1805.628,2669.694l0-.008a1.853,1.853,0,0,0-2.221-1.377l-6.829,1.6a1.853,1.853,0,0,0-1.377,2.22l0,.008a1.853,1.853,0,0,0,2.221,1.377l6.829-1.6A1.853,1.853,0,0,0,1805.628,2669.694Z" transform="translate(-1772.733 -2620.768)"/><path class="c" d="M1901.556,2830.94l-.067-.184a1.753,1.753,0,0,0-2.239-1.046l-6.559,2.384a1.753,1.753,0,0,0-1.046,2.24l.067.184a1.753,1.753,0,0,0,2.239,1.046l6.559-2.384A1.753,1.753,0,0,0,1901.556,2830.94Z" transform="translate(-1867.023 -2778.717)"/><path class="c" d="M2017.712,3017.531l-.079-.217a1.427,1.427,0,0,0-1.824-.852l-5.071,1.843a1.427,1.427,0,0,0-.852,1.823l.079.217a1.427,1.427,0,0,0,1.823.852l5.071-1.843A1.427,1.427,0,0,0,2017.712,3017.531Z" transform="translate(-1982.708 -2961.515)"/><path class="m" d="M2036.128,2542.445l-.283-1.873a.288.288,0,0,1,.248-.329l1.028-.134a1.133,1.133,0,0,1,1.1.948,1.349,1.349,0,0,1-.491,1.353,2.256,2.256,0,0,1-.948.226l-.328.051A.289.289,0,0,1,2036.128,2542.445Z" transform="translate(-2008.18 -2495.282)"/><path class="m" d="M2139.319,2692.477l-.383-1.855a.289.289,0,0,1,.23-.342l1.019-.189a1.133,1.133,0,0,1,1.154.888,1.349,1.349,0,0,1-.418,1.377,2.254,2.254,0,0,1-.934.276l-.325.069A.289.289,0,0,1,2139.319,2692.477Z" transform="translate(-2109.024 -2642.087)"/><path class="m" d="M2213.367,2867.65l-.685-1.766a.289.289,0,0,1,.17-.375l.974-.355a1.133,1.133,0,0,1,1.285.685,1.349,1.349,0,0,1-.185,1.427,2.25,2.25,0,0,1-.875.427l-.309.122A.289.289,0,0,1,2213.367,2867.65Z" transform="translate(-2181.15 -2813.422)"/><path class="m" d="M2237.886,3047.766l-.6-1.545a.253.253,0,0,1,.149-.329l.852-.311a.991.991,0,0,1,1.124.6,1.179,1.179,0,0,1-.162,1.249,1.968,1.968,0,0,1-.766.374l-.271.106A.252.252,0,0,1,2237.886,3047.766Z" transform="translate(-2205.221 -2990.028)"/><path class="c" d="M1987.825,2246.76a13.307,13.307,0,0,0-1.382-1.911,4.462,4.462,0,0,0-1.939-1.3c-.573-.173-1.181-.189-1.767-.31a5.184,5.184,0,0,1-4-4.41.752.752,0,0,1,.193-.706.77.77,0,0,1,.607-.052c1.359.279,2.644.885,4.021,1.052.95.116,1.924.02,2.858.225a8.473,8.473,0,0,1,2.845,1.411,27.077,27.077,0,0,1,4.09,3.523l-4.865,3.568Q1988.166,2247.3,1987.825,2246.76Z" transform="translate(-1952.309 -2199.711)"/><path class="m" d="M1992.993,2245.577l-.305,1.127c-.026.1-.188.119-.359.05l-1.094-.439s-.859-.377-.829-1.048c0,0,.06-.551.933-.468a4.537,4.537,0,0,1,1.042.351l.352.136C1992.9,2245.352,1993.019,2245.482,1992.993,2245.577Z" transform="translate(-1963.733 -2206.208)"/></g></g></g></svg>