<svg xmlns="http://www.w3.org/2000/svg" width="43" height="25.686" viewBox="0 0 43 25.686"><defs><style>.a{fill:#3062bf;stroke:#3062bf;}</style></defs><g transform="translate(0.5 0.5)"><path class="a" d="M41.176,7.235A.824.824,0,0,0,42,6.411V.824A.824.824,0,0,0,41.176,0H.824A.824.824,0,0,0,0,.824V6.411a.824.824,0,0,0,.824.824,5.1,5.1,0,1,1,0,10.2A.824.824,0,0,0,0,18.259v5.587a.824.824,0,0,0,.824.824H8.149a.824.824,0,1,0,0-1.648h-6.5v-3.99a6.748,6.748,0,0,0,0-13.4V1.648h28.3V3.295a.824.824,0,0,0,1.648,0V1.648h8.762v3.99a6.748,6.748,0,0,0,0,13.4v3.99H31.591V21.375a.824.824,0,0,0-1.648,0v1.648H14.913a.824.824,0,1,0,0,1.648H41.176A.824.824,0,0,0,42,23.846V18.259a.824.824,0,0,0-.824-.824,5.1,5.1,0,1,1,0-10.2Zm0,0"/><path class="a" d="M365.843,111.268a.824.824,0,0,0,.824-.824v-6.027a.824.824,0,1,0-1.648,0v6.027A.824.824,0,0,0,365.843,111.268Zm0,0" transform="translate(-335.077 -95.096)"/><path class="a" d="M152.079,74.37a3.238,3.238,0,1,0-2.287.946A3.213,3.213,0,0,0,152.079,74.37Zm-3.873-2.287a1.586,1.586,0,1,1,.465,1.122A1.576,1.576,0,0,1,148.206,72.083Zm0,0" transform="translate(-134.536 -63.203)"/><path class="a" d="M237.645,158.848a3.234,3.234,0,1,0,4.574,0A3.237,3.237,0,0,0,237.645,158.848Zm3.408,1.165a1.588,1.588,0,1,1-1.122-.464A1.588,1.588,0,0,1,241.054,160.013Zm0,0" transform="translate(-217.282 -144.95)"/><path class="a" d="M170.006,100.831l8.581-8.581a.824.824,0,0,0-1.165-1.165l-8.581,8.581a.824.824,0,1,0,1.165,1.165Zm0,0" transform="translate(-154.772 -83.392)"/><path class="a" d="M131.184,280.555a.824.824,0,1,0,.809.669A.831.831,0,0,0,131.184,280.555Zm0,0" transform="translate(-119.667 -257.541)"/></g></svg>