<svg xmlns="http://www.w3.org/2000/svg" xmlns:xlink="http://www.w3.org/1999/xlink" width="134" height="120" viewBox="0 0 134 120"><defs><style>.a,.d,.f{fill:none;}.b{fill:#204180;}.c{fill:#fafafa;}.d{stroke:#204180;}.d,.f{stroke-width:3px;}.e{fill:#3062bf;}.f{stroke:#3062bf;}.g{clip-path:url(#a);}.h{clip-path:url(#b);}.i{clip-path:url(#c);}.j{fill:#fff;font-size:16px;font-family:Comfortaa-Regular_Bold, Comfortaa;}</style><clipPath id="a"><rect class="a" width="4" height="36"/></clipPath><clipPath id="b"><rect class="a" width="4" height="28"/></clipPath><clipPath id="c"><rect class="a" width="4" height="20"/></clipPath></defs><g transform="translate(-597 -1830)"><circle class="b" cx="60" cy="60" r="60" transform="translate(604 1830)"/><circle class="c" cx="49" cy="49" r="49" transform="translate(615 1841)"/><rect class="b" width="54" height="8" transform="translate(637 1933)"/><g transform="translate(-180.575 -75)"><path class="d" d="M862.688,1933h-35.43" transform="translate(0 10)"/><path class="e" d="M827.258,1939.8h11.1v4.8h6.4l6.494,6.561h11.428v35.474H826.75Z"/><path class="d" d="M850.215,1928.627v21.467" transform="translate(12.435)"/><path class="d" d="M826.679,1938.5l0-14.7" transform="translate(0.001)"/><path class="f" d="M826.768,1937.5l-.193,49.094h36.114l.021-37.113"/><path class="d" d="M845,1925.281H826.679"/><path class="d" d="M857,1933H827.258" transform="translate(0 1)"/><path class="d" d="M850.215,1928.627v21.467"/><line class="d" y1="16" transform="translate(838.5 1925.5)"/><path class="f" d="M826.679,1939h11.845v5.512h5.705l6.478,6.478h11.7"/><g class="g" transform="translate(832.575 1945)"><g transform="translate(-832.575 -1949)"><rect class="c" width="4" height="4" rx="1" transform="translate(832.575 1949)"/><rect class="c" width="4" height="4" rx="1" transform="translate(832.575 1957)"/></g><g transform="translate(-832.575 -1933)"><rect class="c" width="4" height="4" rx="1" transform="translate(832.575 1949)"/><rect class="c" width="4" height="4" rx="1" transform="translate(832.575 1957)"/></g><g transform="translate(-832.575 -1917)"><rect class="c" width="4" height="4" rx="1" transform="translate(832.575 1949)"/><rect class="c" width="4" height="4" rx="1" transform="translate(832.575 1957)"/></g></g><g class="h" transform="translate(842.575 1953)"><g transform="translate(-832.575 -1949)"><rect class="c" width="4" height="4" rx="1" transform="translate(832.575 1949)"/><rect class="c" width="4" height="4" rx="1" transform="translate(832.575 1957)"/></g><g transform="translate(-832.575 -1933)"><rect class="c" width="4" height="4" rx="1" transform="translate(832.575 1949)"/><rect class="c" width="4" height="4" rx="1" transform="translate(832.575 1957)"/></g></g><g class="i" transform="translate(852.575 1961)"><g transform="translate(-832.575 -1949)"><rect class="c" width="4" height="4" rx="1" transform="translate(832.575 1949)"/><rect class="c" width="4" height="4" rx="1" transform="translate(832.575 1957)"/></g><g transform="translate(-832.575 -1933)"><rect class="c" width="4" height="4" rx="1" transform="translate(832.575 1949)"/><rect class="c" width="4" height="4" rx="1" transform="translate(832.575 1957)"/></g></g></g><rect class="b" width="134" height="24" rx="4" transform="translate(597 1910)"/><text class="j" transform="translate(605 1929)"><tspan x="0" y="0">ACOMPANHAÍ</tspan></text></g></svg>